<?xml version="1.0" encoding="iso-8859-1"?>
<!-- Uploaded to: SVG Repo, www.svgrepo.com, Generator: SVG Repo Mixer Tools -->
<svg height="800px" width="800px" version="1.1" id="Layer_1" xmlns="http://www.w3.org/2000/svg" xmlns:xlink="http://www.w3.org/1999/xlink" 
	 viewBox="0 0 415.991 415.991" xml:space="preserve">
<g transform="translate(0 -1020.36)">
	<g shape-rendering="auto" image-rendering="auto" color-rendering="auto" color-interpolation="sRGB">
		<path style="fill:#514C57;" d="M171.215,1052.378c-4.306,0.42-7.497,4.188-7.205,8.504c1.034,15.441-6.715,27.67-16.063,41.219
			c-9.347,13.549-20.595,28.297-19.96,47.598v22.678c0.034,2.088,0.882,4.08,2.364,5.551l13.701,14.057v105.234l-13.583,13.465
			c-1.553,1.48-2.446,3.521-2.479,5.666v111.969c-0.017,4.418,3.552,8.014,7.97,8.031c0.02,0,0.041,0,0.061,0h143.976
			c4.419,0.018,8.014-3.551,8.031-7.971c0-0.02,0-0.041,0-0.061v-111.969c-0.003-2.129-0.854-4.166-2.364-5.666l-13.701-13.701
			v-105.355l13.701-13.582c1.511-1.5,2.362-3.539,2.364-5.668v-23.031c-0.022-0.316-0.062-0.631-0.122-0.943
			c-2.552-19.803-12.489-35.094-20.905-48.779c-8.415-13.688-15.146-25.58-15-39.213c0.017-4.418-3.552-8.014-7.97-8.031
			c-0.02,0-0.041,0-0.061,0h-71.929c-0.276-0.014-0.553-0.014-0.828,0H171.215z"/>
		<path style="fill:#EE746C;" d="M176.885,1068.323h62.126c2.189,14.676,7.315,28.146,14.41,39.686
			c8.483,13.797,16.487,26.76,18.543,42.166v18.898l-13.583,13.582c-1.51,1.5-2.361,3.537-2.364,5.666v111.969
			c0.003,2.129,0.854,4.168,2.364,5.668l13.583,13.701v100.631H144.05v-100.631l13.583-13.348c1.51-1.5,2.361-3.537,2.364-5.666
			v-112.086c-0.001-2.072-0.805-4.063-2.244-5.553l-13.701-13.936v-19.725c0.001-0.08,0.001-0.16,0-0.24
			c-0.423-12.596,7.6-24.105,17.126-37.914c7.952-11.527,13.841-26.402,15.709-42.873L176.885,1068.323z"/>
		<path style="fill:#5A3392;" d="M159.168,1020.371c-4.072,0.407-7.181,3.821-7.205,7.914v32.007
			c-0.017,4.418,3.552,8.014,7.97,8.031c0.02,0,0.041,0,0.061,0h96.024c4.419,0.018,8.015-3.551,8.032-7.969
			c0-0.021,0-0.041,0-0.063v-32.007c-0.048-4.397-3.635-7.932-8.032-7.914h-96.024c-0.276-0.015-0.553-0.015-0.828,0H159.168z"/>
		<path style="fill:#29A3EC;" d="M168.027,1036.315h79.96v16.064h-79.96L168.027,1036.315L168.027,1036.315z"/>
		<path style="fill:#FB9761;" d="M180.42,1088.317h55.067c1.935,13.006,6.484,24.949,12.772,35.176
			c7.52,12.229,14.614,23.719,16.436,37.375v16.75l-12.039,12.039c-1.337,1.328-2.09,3.135-2.092,5.02v99.246
			c0.003,1.885,0.756,3.691,2.092,5.02l12.039,12.145v89.197H151.316v-89.197l12.039-11.828c1.337-1.328,2.09-3.135,2.092-5.02
			v-99.352c-0.001-1.836-0.714-3.602-1.99-4.922l-12.143-12.354v-17.482c0.001-0.08,0.001-0.16,0-0.24
			c-0.363-11.164,6.736-21.365,15.18-33.605c7.048-10.217,12.268-23.402,13.924-38.002L180.42,1088.317z"/>
		<g>
			<path style="fill:#FFFFFF;" d="M222.948,1196.354c-1.796,0.23-3.461,1.064-4.723,2.363l-31.772,32.008
				c-3.083,3.166-3.015,8.23,0.151,11.314c1.477,1.438,3.453,2.25,5.515,2.268h12.52l-18.189,18.307
				c-3.131,3.131-3.132,8.207-0.001,11.34c3.131,3.131,8.208,3.131,11.339,0l31.772-32.008c3.083-3.166,3.015-8.23-0.151-11.314
				c-1.477-1.438-3.453-2.25-5.515-2.268h-12.52l18.189-18.307c3.188-3.059,3.293-8.125,0.233-11.313
				c-1.77-1.844-4.315-2.732-6.848-2.389L222.948,1196.354z"/>
			<path style="fill:#FFFFFF;" d="M176.747,1316.39c-4.418,0.047-7.962,3.668-7.914,8.086c0,0.021,0.001,0.041,0.001,0.063v31.773
				c0.027,4.436,3.645,8.01,8.081,7.982c4.397-0.027,7.954-3.586,7.982-7.982v-31.773c0.082-4.418-3.432-8.066-7.85-8.148
				C176.947,1316.388,176.847,1316.388,176.747,1316.39z"/>
		</g>
	</g>
	<path style="fill:#FFFFFF;" d="M184.851,1380.425c0,4.418-3.582,8-8,8l0,0c-4.418,0-8-3.582-8-8l0,0c0-4.418,3.582-8,8-8l0,0
		C181.27,1372.425,184.851,1376.007,184.851,1380.425L184.851,1380.425z"/>
	<g shape-rendering="auto" image-rendering="auto" color-rendering="auto" color-interpolation="sRGB">
		<path style="fill:#5A3392;" d="M171.215,1052.378c-4.306,0.42-7.498,4.188-7.205,8.504c1.034,15.441-6.715,27.789-16.063,41.338
			c-9.347,13.549-20.595,28.18-19.961,47.48v22.678c0.034,2.088,0.882,4.08,2.364,5.551l13.701,14.057v105.234l-13.583,13.465
			c-1.553,1.48-2.446,3.521-2.479,5.666v111.969c-0.017,4.418,3.552,8.014,7.97,8.031c0.021,0,0.041,0,0.062,0h143.976
			c4.419,0.018,8.014-3.551,8.031-7.971c0-0.02,0-0.041,0-0.061V1316.35c-0.003-2.129-0.854-4.166-2.364-5.666l-13.701-13.701
			v-105.355l13.701-13.582c1.511-1.5,2.362-3.539,2.364-5.668v-23.031c-0.022-0.316-0.062-0.631-0.122-0.943
			c-2.552-19.803-12.49-35.094-20.905-48.779c-8.416-13.688-15.146-25.58-15-39.213c0.017-4.418-3.552-8.014-7.97-8.031
			c-0.02,0-0.041,0-0.061,0h-71.93c-0.276-0.014-0.553-0.014-0.828,0L171.215,1052.378z M177.003,1068.321h62.008
			c2.189,14.676,7.315,28.146,14.409,39.686c8.484,13.797,16.487,26.76,18.543,42.166v18.898l-13.583,13.582
			c-1.51,1.5-2.361,3.537-2.364,5.666v112.086c0.033,2.088,0.882,4.082,2.364,5.553l13.583,13.701v100.748H144.049v-100.748
			l13.583-13.348c1.51-1.5,2.361-3.537,2.364-5.666v-112.086c-0.001-2.072-0.805-4.063-2.244-5.553l-13.701-13.936v-19.725
			c0.001-0.08,0.001-0.16,0-0.24c-0.423-12.596,7.6-24.105,17.126-37.914c7.953-11.527,13.961-26.398,15.827-42.873
			L177.003,1068.321z"/>
		<path style="fill:#3CDEF6;" d="M176.007,1040.347h64v8h-64L176.007,1040.347L176.007,1040.347z"/>
	</g>
</g>
</svg>